HIERARCHY
ROOT Hips
{
	OFFSET -0.087744 88.518600 4.106688
	CHANNELS 6 Xposition Yposition Zposition Zrotation Yrotation Xrotation 
	JOINT Spine
	{
		OFFSET 0.000000 8.814246 -2.080107
		CHANNELS 3 Zrotation Yrotation Xrotation
		JOINT Spine1
		{
			OFFSET -0.000000 8.844141 -0.000000
			CHANNELS 3 Zrotation Yrotation Xrotation
			JOINT Spine2
			{
				OFFSET 0.000000 11.682268 0.000000
				CHANNELS 3 Zrotation Yrotation Xrotation
				JOINT Spine3
				{
					OFFSET 0.000000 11.746700 0.000000
					CHANNELS 3 Zrotation Yrotation Xrotation
					JOINT Neck
					{
						OFFSET 0.000000 17.658264 -0.000000
						CHANNELS 3 Zrotation Yrotation Xrotation
						JOINT Neck1
						{
							OFFSET -0.000000 5.101515 -0.000000
							CHANNELS 3 Zrotation Yrotation Xrotation
							JOINT Head
							{
								OFFSET -0.000000 5.101515 -0.000000
								CHANNELS 3 Zrotation Yrotation Xrotation
								JOINT HeadEnd
								{
									OFFSET 0.000000 11.655085 0.000000
									CHANNELS 3 Zrotation Yrotation Xrotation
									End Site
									{
										OFFSET 0.000000 0.000000 0.000000
									}
								}
							}
						}
					}
					JOINT RightShoulder
					{
						OFFSET -2.625389 11.175210 0.000000
						CHANNELS 3 Zrotation Yrotation Xrotation
						JOINT RightArm
						{
							OFFSET 0.000000 10.434715 -0.000000
							CHANNELS 3 Zrotation Yrotation Xrotation
							JOINT RightForeArm
							{
								OFFSET -0.000000 29.628420 0.000000
								CHANNELS 3 Zrotation Yrotation Xrotation
								JOINT RightHand
								{
									OFFSET -0.000000 22.857611 0.000000
									CHANNELS 3 Zrotation Yrotation Xrotation
									JOINT RightHandThumb1
									{
										OFFSET -2.867323 3.959563 2.944291
										CHANNELS 3 Zrotation Yrotation Xrotation
										JOINT RightHandThumb2
										{
											OFFSET -0.000000 3.350399 0.000000
											CHANNELS 3 Zrotation Yrotation Xrotation
											JOINT RightHandThumb3
											{
												OFFSET 0.000000 3.756509 -0.000000
												CHANNELS 3 Zrotation Yrotation Xrotation
												JOINT RightHandThumb4
												{
													OFFSET -0.000000 3.147345 0.000000
													CHANNELS 3 Zrotation Yrotation Xrotation
													End Site
													{
														OFFSET 0.000000 0.000000 0.000000
													}
												}
											}
										}
									}
									JOINT RightHandIndex1
									{
										OFFSET -0.086752 10.030893 2.345280
										CHANNELS 3 Zrotation Yrotation Xrotation
										JOINT RightHandIndex2
										{
											OFFSET 0.000000 4.061090 -0.000000
											CHANNELS 3 Zrotation Yrotation Xrotation
											JOINT RightHandIndex3
											{
												OFFSET 0.000000 3.248873 -0.000000
												CHANNELS 3 Zrotation Yrotation Xrotation
												JOINT RightHandIndex4
												{
													OFFSET 0.000000 2.639709 -0.000000
													CHANNELS 3 Zrotation Yrotation Xrotation
													End Site
													{
														OFFSET 0.000000 0.000000 0.000000
													}
												}
											}
										}
									}
									JOINT RightHandMiddle1
									{
										OFFSET 0.104102 9.502952 0.006768
										CHANNELS 3 Zrotation Yrotation Xrotation
										JOINT RightHandMiddle2
										{
											OFFSET 0.000000 4.568727 -0.000000
											CHANNELS 3 Zrotation Yrotation Xrotation
											JOINT RightHandMiddle3
											{
												OFFSET -0.000000 3.654981 0.000000
												CHANNELS 3 Zrotation Yrotation Xrotation
												JOINT RightHandMiddle4
												{
													OFFSET 0.000000 2.741236 0.000000
													CHANNELS 3 Zrotation Yrotation Xrotation
													End Site
													{
														OFFSET 0.000000 0.000000 0.000000
													}
												}
											}
										}
									}
									JOINT RightHandRing1
									{
										OFFSET 0.086752 8.921708 -2.267442
										CHANNELS 3 Zrotation Yrotation Xrotation
										JOINT RightHandRing2
										{
											OFFSET 0.000000 4.061090 -0.000000
											CHANNELS 3 Zrotation Yrotation Xrotation
											JOINT RightHandRing3
											{
												OFFSET -0.000000 3.654981 0.000000
												CHANNELS 3 Zrotation Yrotation Xrotation
												JOINT RightHandRing4
												{
													OFFSET 0.000000 2.741236 -0.000000
													CHANNELS 3 Zrotation Yrotation Xrotation
													End Site
													{
														OFFSET 0.000000 0.000000 0.000000
													}
												}
											}
										}
									}
									JOINT RightHandPinky1
									{
										OFFSET -0.173504 7.976997 -4.467199
										CHANNELS 3 Zrotation Yrotation Xrotation
										JOINT RightHandPinky2
										{
											OFFSET 0.000000 3.350399 0.000000
											CHANNELS 3 Zrotation Yrotation Xrotation
											JOINT RightHandPinky3
											{
												OFFSET 0.000000 2.842763 -0.000000
												CHANNELS 3 Zrotation Yrotation Xrotation
												JOINT RightHandPinky4
												{
													OFFSET -0.000000 2.639709 -0.000000
													CHANNELS 3 Zrotation Yrotation Xrotation
													End Site
													{
														OFFSET 0.000000 0.000000 0.000000
													}
												}
											}
										}
									}
									JOINT RightForeArmEnd
									{
										OFFSET 0.000000 0.000000 0.000000
										CHANNELS 3 Zrotation Yrotation Xrotation
										End Site
										{
											OFFSET 0.000000 0.000000 0.000000
										}
									}
								}
								JOINT RightArmEnd
								{
									OFFSET 0.000000 0.000000 0.000000
									CHANNELS 3 Zrotation Yrotation Xrotation
									End Site
									{
										OFFSET 0.000000 0.000000 0.000000
									}
								}
							}
						}
					}
					JOINT LeftShoulder
					{
						OFFSET 2.625389 11.175210 -0.000000
						CHANNELS 3 Zrotation Yrotation Xrotation
						JOINT LeftArm
						{
							OFFSET -0.000000 10.813635 0.000000
							CHANNELS 3 Zrotation Yrotation Xrotation
							JOINT LeftForeArm
							{
								OFFSET -0.000000 28.724781 0.000000
								CHANNELS 3 Zrotation Yrotation Xrotation
								JOINT LeftHand
								{
									OFFSET 0.644384 25.716167 -0.328871
									CHANNELS 3 Zrotation Yrotation Xrotation
									JOINT LeftHandThumb1
									{
										OFFSET 2.867323 3.959563 2.944291
										CHANNELS 3 Zrotation Yrotation Xrotation
										JOINT LeftHandThumb2
										{
											OFFSET -0.000000 3.350399 0.000000
											CHANNELS 3 Zrotation Yrotation Xrotation
											JOINT LeftHandThumb3
											{
												OFFSET -0.000000 3.756509 -0.000000
												CHANNELS 3 Zrotation Yrotation Xrotation
												JOINT LeftHandThumb4
												{
													OFFSET 0.000000 3.100000 -0.000000
													CHANNELS 3 Zrotation Yrotation Xrotation
													End Site
													{
														OFFSET 0.000000 0.000000 0.000000
													}
												}
											}
										}
									}
									JOINT LeftHandIndex1
									{
										OFFSET 0.086752 10.030893 2.345280
										CHANNELS 3 Zrotation Yrotation Xrotation
										JOINT LeftHandIndex2
										{
											OFFSET -0.000000 4.061090 0.000000
											CHANNELS 3 Zrotation Yrotation Xrotation
											JOINT LeftHandIndex3
											{
												OFFSET 0.000000 3.248873 0.000000
												CHANNELS 3 Zrotation Yrotation Xrotation
												JOINT LeftHandIndex4
												{
													OFFSET 0.000000 2.639709 -0.000000
													CHANNELS 3 Zrotation Yrotation Xrotation
													End Site
													{
														OFFSET 0.000000 0.000000 0.000000
													}
												}
											}
										}
									}
									JOINT LeftHandMiddle1
									{
										OFFSET -0.104102 9.502952 0.006768
										CHANNELS 3 Zrotation Yrotation Xrotation
										JOINT LeftHandMiddle2
										{
											OFFSET 0.000000 4.568727 -0.000000
											CHANNELS 3 Zrotation Yrotation Xrotation
											JOINT LeftHandMiddle3
											{
												OFFSET 0.000000 3.654981 0.000000
												CHANNELS 3 Zrotation Yrotation Xrotation
												JOINT LeftHandMiddle4
												{
													OFFSET -0.000000 2.741236 -0.000000
													CHANNELS 3 Zrotation Yrotation Xrotation
													End Site
													{
														OFFSET 0.000000 0.000000 0.000000
													}
												}
											}
										}
									}
									JOINT LeftHandRing1
									{
										OFFSET -0.086752 8.921708 -2.267442
										CHANNELS 3 Zrotation Yrotation Xrotation
										JOINT LeftHandRing2
										{
											OFFSET -0.000000 4.061090 -0.000000
											CHANNELS 3 Zrotation Yrotation Xrotation
											JOINT LeftHandRing3
											{
												OFFSET 0.000000 3.654981 0.000000
												CHANNELS 3 Zrotation Yrotation Xrotation
												JOINT LeftHandRing4
												{
													OFFSET -0.000000 2.741236 -0.000000
													CHANNELS 3 Zrotation Yrotation Xrotation
													End Site
													{
														OFFSET 0.000000 0.000000 0.000000
													}
												}
											}
										}
									}
									JOINT LeftHandPinky1
									{
										OFFSET 0.173504 7.976997 -4.467199
										CHANNELS 3 Zrotation Yrotation Xrotation
										JOINT LeftHandPinky2
										{
											OFFSET 0.000000 3.350399 0.000000
											CHANNELS 3 Zrotation Yrotation Xrotation
											JOINT LeftHandPinky3
											{
												OFFSET -0.000000 2.842763 -0.000000
												CHANNELS 3 Zrotation Yrotation Xrotation
												JOINT LeftHandPinky4
												{
													OFFSET -0.000000 2.639709 -0.000000
													CHANNELS 3 Zrotation Yrotation Xrotation
													End Site
													{
														OFFSET 0.000000 0.000000 0.000000
													}
												}
											}
										}
									}
									JOINT LeftForeArmEnd
									{
										OFFSET 0.000000 0.000000 0.000000
										CHANNELS 3 Zrotation Yrotation Xrotation
										End Site
										{
											OFFSET 0.000000 0.000000 0.000000
										}
									}
								}
								JOINT LeftArmEnd
								{
									OFFSET 0.000000 0.000000 0.000000
									CHANNELS 3 Zrotation Yrotation Xrotation
									End Site
									{
										OFFSET 0.000000 0.000000 0.000000
									}
								}
							}
						}
					}
				}
			}
		}
	}
	JOINT RightUpLeg
	{
		OFFSET -11.289943 0.000000 0.000000
		CHANNELS 3 Zrotation Yrotation Xrotation
		JOINT RightLeg
		{
			OFFSET -0.000000 -38.200325 -0.000000
			CHANNELS 3 Zrotation Yrotation Xrotation
			JOINT RightFoot
			{
				OFFSET -0.000000 -39.900856 -0.000000
				CHANNELS 3 Zrotation Yrotation Xrotation
				JOINT RightToeBase
				{
					OFFSET 0.000000 0.000000 15.261641
					CHANNELS 3 Zrotation Yrotation Xrotation
					JOINT RightToeBaseEnd
					{
						OFFSET 0.000000 0.000000 7.370709
						CHANNELS 3 Zrotation Yrotation Xrotation
						End Site
						{
							OFFSET 0.000000 0.000000 0.000000
						}
					}
				}
				JOINT RightLegEnd
				{
					OFFSET 0.000000 0.000000 0.000000
					CHANNELS 3 Zrotation Yrotation Xrotation
					End Site
					{
						OFFSET 0.000000 0.000000 0.000000
					}
				}
			}
			JOINT RightUpLegEnd
			{
				OFFSET 0.000000 0.000000 0.000000
				CHANNELS 3 Zrotation Yrotation Xrotation
				End Site
				{
					OFFSET 0.000000 0.000000 0.000000
				}
			}
		}
	}
	JOINT LeftUpLeg
	{
		OFFSET 11.315661 0.000000 -0.000000
		CHANNELS 3 Zrotation Yrotation Xrotation
		JOINT LeftLeg
		{
			OFFSET 0.000000 -38.200325 0.000000
			CHANNELS 3 Zrotation Yrotation Xrotation
			JOINT LeftFoot
			{
				OFFSET 0.000000 -39.900856 -0.000000
				CHANNELS 3 Zrotation Yrotation Xrotation
				JOINT LeftToeBase
				{
					OFFSET 0.000000 0.000000 15.261641
					CHANNELS 3 Zrotation Yrotation Xrotation
					JOINT LeftToeBaseEnd
					{
						OFFSET -0.000000 0.000000 7.539996
						CHANNELS 3 Zrotation Yrotation Xrotation
						End Site
						{
							OFFSET 0.000000 0.000000 0.000000
						}
					}
				}
				JOINT LeftLegEnd
				{
					OFFSET 0.000000 0.000000 0.000000
					CHANNELS 3 Zrotation Yrotation Xrotation
					End Site
					{
						OFFSET 0.000000 0.000000 0.000000
					}
				}
			}
			JOINT LeftUpLegEnd
			{
				OFFSET 0.000000 0.000000 0.000000
				CHANNELS 3 Zrotation Yrotation Xrotation
				End Site
				{
					OFFSET 0.000000 0.000000 0.000000
				}
			}
		}
	}
}
MOTION
Frames: 4
Frame Time: 0.016667
-2.042307 85.575600 16.482775 -1.895794 -7.396107 -14.967106 2.515780 -0.188856 8.207759 0.428251 -0.126906 2.743247 -2.602960 -1.426816 10.876264 -1.330439 -0.730208 4.992178 4.951365 1.396366 0.817711 0.907541 3.643302 -5.070826 -1.759235 -1.309704 -17.533430 0.000000 0.000000 0.000000 90.762428 -0.777981 12.152534 46.690624 -32.206955 10.695243 -0.591146 15.877815 39.420837 4.745477 1.552922 -1.486263 17.583206 -2.037183 37.104656 0.000007 0.000031 -42.737476 -0.000011 0.000032 -29.661304 0.000003 -0.000005 -0.000035 48.057690 -0.213420 -8.841175 33.395905 -0.147261 1.074812 33.531277 -0.111012 0.942364 0.000017 0.000034 -0.000039 46.131805 -0.071028 -6.830856 32.311794 -0.064722 0.371743 32.515591 -0.035324 0.344880 0.000007 -0.000034 0.000002 50.578857 0.042186 -1.907363 35.255730 0.103959 -0.468254 35.448360 0.056582 -0.357801 -0.000025 0.002613 0.000012 51.749962 0.161818 1.963255 36.004322 0.180385 -1.063764 35.825863 0.107001 -0.906802 0.000404 -0.000010 0.000001 0.000000 0.000000 0.000000 0.000000 0.000000 0.000000 -88.190445 0.075083 8.955610 -56.337208 20.192383 7.713340 0.000095 -11.482154 49.387905 10.367095 3.479287 -10.660752 -20.910252 1.881818 35.699749 -0.000018 0.000039 -51.469902 0.000150 -0.000003 -35.934605 -0.002984 -0.000037 0.002953 -64.205948 -0.095802 -14.294848 -44.743263 -0.066249 -0.753768 -44.871876 -0.030649 -0.712216 0.000029 0.000232 0.000021 -63.940327 -0.017222 -9.039023 -44.775936 -0.045857 -0.294187 -44.976303 -0.024572 -0.224999 0.003238 -0.000054 0.000106 -73.178093 0.052503 -2.219165 -51.314232 0.035220 0.265509 -51.250114 0.012211 0.232958 -0.000715 0.000005 0.000004 -77.268776 0.262805 4.556590 -53.503880 -0.009804 0.703005 -53.376301 -0.039355 0.607845 -0.000814 -0.000002 -0.000052 0.000000 0.000000 0.000000 0.000000 0.000000 0.000000 -3.948469 -12.284356 8.782996 -0.250735 -1.006662 18.704306 1.597795 -11.754654 11.459266 -0.917121 1.539999 -16.601192 0.000000 0.000000 0.000000 0.000000 0.000000 0.000000 0.000000 0.000000 0.000000 11.556195 -2.038808 5.863359 0.337810 0.788912 25.857561 -7.983720 14.837548 10.687458 1.721390 -0.549348 -20.489174 0.000000 0.000000 0.000000 0.000000 0.000000 0.000000 0.000000 0.000000 0.000000 
-2.786281 85.592323 16.589636 -2.059203 -6.672668 -15.055813 2.629725 -0.250488 8.199821 0.414759 -0.145929 2.714028 -2.479004 -1.672356 10.930664 -1.260210 -0.807971 4.990089 5.123364 1.274897 0.668553 0.821101 3.606452 -5.190051 -1.783928 -1.298185 -17.564287 0.000000 0.000000 0.000000 91.261131 -0.806568 12.223900 47.844517 -32.914440 11.068939 -0.621296 15.234014 37.260742 4.706364 3.116565 -1.981304 17.443745 -2.026545 37.172161 0.000007 0.000032 -42.430840 -0.000010 0.000033 -29.437189 0.000003 -0.000005 -0.000036 47.465878 -0.213712 -8.950459 33.045036 -0.143562 1.057516 33.184109 -0.108559 0.926302 0.000018 0.000033 -0.000039 45.520378 -0.071405 -6.932877 31.968651 -0.063574 0.365815 32.156315 -0.034843 0.339458 0.000008 -0.000045 0.000002 49.876068 0.041091 -2.082878 34.837479 0.101366 -0.462938 35.020851 0.055969 -0.354276 -0.000026 0.002537 0.000012 51.025833 0.157168 1.720394 35.573349 0.173440 -1.057470 35.385075 0.102931 -0.901945 0.000343 -0.000012 0.000001 0.000000 0.000000 0.000000 0.000000 0.000000 0.000000 -88.696579 0.130478 9.126845 -56.509117 20.963640 8.259372 -0.025807 -11.045340 47.435318 9.658944 3.249938 -11.660993 -20.693142 1.887449 35.795757 -0.000018 0.000040 -50.910221 0.000142 -0.000003 -35.543194 -0.003188 -0.000037 0.002829 -63.103279 -0.098789 -14.651297 -44.015602 -0.067730 -0.752546 -44.135334 -0.033285 -0.713390 0.000028 0.000408 0.000020 -62.826820 -0.018263 -9.470487 -44.039261 -0.046372 -0.295914 -44.246315 -0.025264 -0.225696 0.003231 -0.000054 0.000116 -72.079231 0.051955 -2.727244 -50.566059 0.034317 0.266061 -50.503704 0.012740 0.233411 -0.000735 0.000004 0.000004 -76.251579 0.261455 3.988727 -52.800220 -0.008612 0.705578 -52.678688 -0.036521 0.607464 -0.000830 -0.000004 -0.000052 0.000000 0.000000 0.000000 0.000000 0.000000 0.000000 -3.372719 -12.787725 9.406914 -0.238177 -0.992942 18.337154 1.199475 -12.074893 11.175682 -0.886117 1.519488 -16.444328 0.000000 0.000000 0.000000 0.000000 0.000000 0.000000 0.000000 0.000000 0.000000 12.150252 -2.258612 5.952297 0.349790 0.811088 25.847576 -8.210607 14.513712 10.889655 1.770619 -0.535806 -20.479155 0.000000 0.000000 0.000000 0.000000 0.000000 0.000000 0.000000 0.000000 0.000000 
-3.492592 85.609673 16.700161 -2.200155 -6.001632 -15.124731 2.749340 -0.311726 8.198035 0.418274 -0.170770 2.681716 -2.334122 -1.889908 10.954538 -1.184128 -0.866006 5.009456 5.207583 1.224311 0.507975 0.743078 3.625365 -5.302306 -1.816818 -1.287483 -17.572245 0.000000 0.000000 0.000000 91.632202 -0.817196 12.309584 48.918983 -33.556454 11.395252 -0.651343 14.551989 35.617481 4.639473 4.574001 -2.440476 17.344685 -2.016310 37.222748 0.000007 0.000034 -42.221848 -0.000008 0.000034 -29.280897 0.000003 -0.000005 -0.000036 47.093025 -0.214185 -8.978968 32.853210 -0.137171 1.028575 32.992119 -0.103611 0.900165 0.000018 0.000033 -0.000040 45.125912 -0.071793 -6.955859 31.774565 -0.061312 0.355917 31.949141 -0.033432 0.330762 0.000009 -0.000056 0.000002 49.360123 0.039946 -2.188065 34.560375 0.097107 -0.453093 34.731819 0.054160 -0.347136 -0.000026 0.002475 0.000012 50.435783 0.153079 1.549563 35.258633 0.163938 -1.040426 35.061588 0.096291 -0.887354 0.000317 -0.000013 0.000000 0.000000 0.000000 0.000000 0.000000 0.000000 0.000000 -89.078590 0.183043 9.277964 -56.686916 21.945881 8.661942 -0.025887 -10.549819 45.896019 8.918629 3.341521 -12.529306 -20.520866 1.889700 35.874584 -0.000018 0.000041 -50.463501 0.000129 -0.000003 -35.228550 -0.003377 -0.000037 0.002632 -62.261856 -0.101914 -14.926570 -43.450649 -0.068197 -0.746382 -43.562542 -0.034772 -0.709867 0.000028 0.000556 0.000020 -61.962387 -0.019240 -9.815896 -43.464706 -0.046340 -0.295675 -43.674862 -0.025613 -0.224912 0.003248 -0.000054 0.000122 -71.196251 0.051353 -3.149410 -49.965691 0.032632 0.264438 -49.902500 0.012700 0.231758 -0.000790 0.000004 0.000003 -75.415924 0.259803 3.519091 -52.229488 -0.009179 0.702396 -52.113499 -0.035264 0.601035 -0.000837 -0.000006 -0.000052 0.000000 0.000000 0.000000 0.000000 0.000000 0.000000 -2.849211 -13.225605 9.965381 -0.224799 -0.971896 18.000013 0.821457 -12.360052 10.958895 -0.854659 1.494250 -16.314745 0.000000 0.000000 0.000000 0.000000 0.000000 0.000000 0.000000 0.000000 0.000000 12.683613 -2.430196 6.001517 0.359355 0.828999 25.844246 -8.393489 14.233472 11.109168 1.806198 -0.526502 -20.478327 0.000000 0.000000 0.000000 0.000000 0.000000 0.000000 0.000000 0.000000 0.000000 
-4.154855 85.630997 16.808640 -2.299982 -5.385755 -15.159300 2.868978 -0.369369 8.197645 0.440407 -0.201246 2.643694 -2.180346 -2.067515 10.938974 -1.108826 -0.903612 5.039039 5.184470 1.234203 0.342941 0.673682 3.678994 -5.408803 -1.856770 -1.280938 -17.560507 0.000000 0.000000 0.000000 91.849808 -0.809072 12.418264 49.866924 -34.153290 11.699532 -0.674053 13.882119 34.457432 4.559805 5.797983 -2.885000 17.285635 -2.008066 37.255093 0.000007 0.000035 -42.106716 -0.000007 0.000034 -29.189734 0.000004 -0.000005 -0.000036 46.905312 -0.213541 -8.961728 32.793037 -0.129757 0.990169 32.927078 -0.097724 0.866167 0.000018 0.000033 -0.000040 44.917328 -0.071819 -6.942284 31.702406 -0.058685 0.343093 31.868616 -0.031661 0.319528 0.000010 -0.000067 0.000003 49.011833 0.038710 -2.261698 34.404324 0.092501 -0.439865 34.562492 0.051986 -0.337374 -0.000026 0.002406 0.000012 49.968147 0.149120 1.419741 35.045052 0.154663 -1.016582 34.840851 0.089139 -0.866000 0.000322 -0.000013 -0.000000 0.000000 0.000000 0.000000 0.000000 0.000000 0.000000 -89.306519 0.220238 9.404135 -56.925835 23.072430 8.893412 -0.002244 -10.055117 44.815395 8.185122 3.677862 -13.191128 -20.410295 1.889368 35.927723 -0.000017 0.000043 -50.171013 0.000115 -0.000003 -35.019676 -0.003543 -0.000037 0.002393 -61.744102 -0.104387 -15.079894 -43.099152 -0.066788 -0.729367 -43.204777 -0.034225 -0.696388 0.000027 0.000665 0.000021 -61.413315 -0.019977 -10.035951 -43.104107 -0.045529 -0.291219 -43.314053 -0.025346 -0.220881 0.003286 -0.000053 0.000124 -70.593735 0.050465 -3.449486 -49.563599 0.029850 0.257420 -49.496861 0.011794 0.225816 -0.000859 0.000004 0.000003 -74.822090 0.256718 3.179626 -51.835072 -0.012700 0.684455 -51.725590 -0.036754 0.582368 -0.000823 -0.000008 -0.000053 0.000000 0.000000 0.000000 0.000000 0.000000 0.000000 -2.395101 -13.588227 10.421872 -0.211396 -0.943530 17.721989 0.468510 -12.603158 10.803328 -0.823442 1.463272 -16.217581 0.000000 0.000000 0.000000 0.000000 0.000000 0.000000 0.000000 0.000000 0.000000 13.133924 -2.547585 6.006250 0.366625 0.843109 25.827166 -8.523201 14.003139 11.358214 1.828523 -0.521388 -20.492962 0.000000 0.000000 0.000000 0.000000 0.000000 0.000000 0.000000 0.000000 0.000000 
